<?xml version="1.0" standalone="no"?>
<!DOCTYPE svg PUBLIC "-//W3C//DTD SVG 20010904//EN"
 "http://www.w3.org/TR/2001/REC-SVG-20010904/DTD/svg10.dtd">
<svg version="1.0" xmlns="http://www.w3.org/2000/svg"
 width="777.000000pt" height="854.000000pt" viewBox="0 0 777.000000 854.000000"
 preserveAspectRatio="xMidYMid meet">

<g transform="translate(0.000000,854.000000) scale(0.100000,-0.100000)"
fill="#000000" stroke="none">
<path d="M6013 8518 c-5 -7 -38 -175 -72 -373 -62 -354 -187 -893 -277 -1200
-102 -345 -274 -834 -358 -1018 -20 -43 -36 -83 -36 -90 0 -48 -356 -722 -518
-982 -42 -66 -93 -151 -114 -188 -41 -72 -276 -380 -387 -507 -213 -243 -302
-336 -477 -496 -228 -207 -499 -413 -760 -574 -179 -112 -608 -331 -714 -365
-55 -18 -184 -84 -177 -91 13 -14 320 24 512 62 601 121 1209 410 1709 814
191 154 468 428 638 630 243 290 455 624 645 1020 169 350 295 721 387 1135
61 275 92 507 116 865 18 263 19 332 10 500 -21 388 -82 870 -110 870 -4 0
-12 -6 -17 -12z"/>
<path d="M2410 7774 c-29 -20 -89 -63 -133 -95 -67 -49 -101 -65 -216 -104
-75 -24 -188 -54 -251 -66 -133 -24 -333 -98 -455 -168 -72 -41 -116 -78 -295
-248 l-55 -53 -170 0 -171 0 -167 -45 c-140 -38 -194 -59 -323 -123 -98 -49
-154 -82 -154 -92 0 -8 24 -30 54 -48 44 -26 73 -34 167 -47 136 -18 319 -55
319 -64 0 -4 -53 -33 -117 -65 -114 -56 -432 -253 -433 -268 -1 -19 53 -38
135 -49 85 -11 209 -9 418 8 61 5 77 3 77 -8 0 -7 -56 -189 -124 -404 -202
-633 -206 -647 -206 -729 0 -52 8 -99 31 -171 39 -125 37 -158 -31 -485 -78
-372 -160 -887 -160 -1002 l0 -98 43 0 c115 1 264 23 437 65 l190 47 54 65
c40 48 60 84 75 132 l20 66 -36 113 -35 113 37 132 c29 104 53 163 116 282
110 208 163 267 442 496 279 227 407 361 473 491 42 84 44 91 44 178 0 78 -4
102 -35 182 -19 51 -35 99 -35 106 0 32 20 0 82 -131 l68 -142 6 -130 6 -130
-46 -180 c-91 -349 -206 -614 -371 -855 -218 -319 -264 -393 -357 -585 -184
-377 -245 -641 -218 -950 18 -201 79 -393 206 -645 51 -102 113 -216 137 -253
49 -77 61 -76 72 3 4 25 25 112 47 194 32 117 58 186 122 321 181 376 416 617
1011 1040 387 274 532 391 736 593 l177 174 7 -50 c6 -42 0 -73 -30 -178 -20
-70 -35 -135 -33 -145 5 -31 80 50 167 179 150 224 256 522 332 932 6 36 15
71 19 79 15 29 33 -59 45 -227 11 -160 22 -211 39 -183 4 5 31 78 61 162 l55
151 0 350 0 350 -40 109 c-22 60 -40 111 -40 114 0 3 73 5 163 6 154 0 167 2
267 33 66 20 105 38 105 46 0 8 -51 34 -126 64 -141 57 -163 68 -484 246 -189
105 -254 136 -363 171 -73 24 -131 48 -129 53 2 5 68 32 148 60 147 52 297
135 320 178 8 15 6 18 -18 18 -15 0 -131 9 -258 20 -225 18 -234 20 -410 73
-165 50 -338 116 -358 137 -10 9 56 35 171 70 58 17 206 92 231 116 16 16 -43
35 -164 54 -127 20 -157 29 -330 100 -246 101 -419 156 -517 165 -43 4 -78 10
-78 13 0 3 18 65 40 138 46 151 71 264 60 264 -4 0 -31 -16 -60 -36z"/>
<path d="M7486 4992 c-20 -26 -121 -134 -223 -240 -286 -298 -637 -578 -1138
-909 -331 -219 -564 -344 -865 -462 -189 -75 -250 -93 -250 -73 0 4 66 105
147 224 80 120 144 221 140 224 -3 4 -88 -45 -189 -109 -735 -461 -1524 -830
-2212 -1032 -215 -63 -404 -105 -654 -145 -101 -16 -186 -31 -188 -33 -3 -2
35 -18 83 -35 62 -22 156 -42 318 -66 866 -131 1796 -18 2595 317 418 175 706
334 1045 577 201 144 313 238 517 435 369 356 722 854 858 1209 33 87 59 160
57 162 -1 2 -20 -18 -41 -44z"/>
<path d="M7640 3203 c-609 -443 -1331 -822 -1900 -997 -184 -56 -400 -114
-470 -126 -36 -6 -108 -22 -160 -35 -56 -14 -208 -37 -371 -55 -262 -28 -298
-30 -682 -30 -384 0 -419 2 -679 30 -397 44 -805 127 -1234 251 -104 30 -139
35 -147 21 -11 -16 177 -205 330 -332 201 -168 368 -275 588 -378 228 -107
436 -172 712 -223 212 -39 226 -41 493 -46 l275 -6 285 48 c508 84 899 214
1389 460 472 237 830 493 1194 854 251 248 381 411 504 634 13 24 -35 -3 -127
-70z"/>
<path d="M1946 2020 c9 -117 88 -378 155 -512 203 -406 520 -744 969 -1035
208 -135 271 -170 478 -270 172 -83 512 -211 512 -193 0 4 -4 10 -10 12 -5 2
-71 64 -147 138 -76 75 -214 210 -308 300 -187 181 -417 456 -520 621 -106
170 -121 187 -199 225 -39 20 -143 82 -230 137 -152 97 -170 112 -366 307
-114 113 -237 239 -274 280 l-67 75 7 -85z"/>
</g>
</svg>
